<svg width="109" height="8" viewBox="0 0 109 8" fill="none" xmlns="http://www.w3.org/2000/svg">
<path d="M0.818359 1.39795L3.6438 4.22338C5.20424 5.78382 7.73421 5.78382 9.29465 4.22338V4.22338C10.8551 2.66294 13.3851 2.66294 14.9455 4.22338V4.22338C16.5059 5.78382 19.0359 5.78382 20.5964 4.22338V4.22338C22.1568 2.66294 24.6868 2.66294 26.2472 4.22338V4.22338C27.8077 5.78382 30.3376 5.78382 31.8981 4.22338V4.22338C33.4585 2.66294 35.9885 2.66294 37.5489 4.22338V4.22338C39.1094 5.78382 41.6393 5.78382 43.1998 4.22338V4.22338C44.7602 2.66294 47.2902 2.66294 48.8506 4.22338V4.22338C50.4111 5.78382 52.941 5.78382 54.5015 4.22338V4.22338C56.0619 2.66294 58.5919 2.66294 60.1523 4.22338V4.22338C61.7128 5.78382 64.2427 5.78382 65.8032 4.22338V4.22338C67.3636 2.66294 69.8936 2.66294 71.454 4.22338V4.22338C73.0145 5.78382 75.5444 5.78382 77.1049 4.22338V4.22338C78.6653 2.66294 81.1953 2.66294 82.7557 4.22338V4.22338C84.3162 5.78382 86.8461 5.78382 88.4066 4.22338V4.22338C89.967 2.66294 92.497 2.66294 94.0574 4.22338V4.22338C95.6179 5.78382 98.1479 5.78382 99.7083 4.22338V4.22338C101.269 2.66294 103.799 2.66294 105.359 4.22338L108.185 7.0488" stroke="#FDD400" stroke-width="2"/>
</svg>
